# Blender 4.0.2
# www.blender.org
mtllib untitled.mtl
o Cube
v 0.792387 0.907820 -0.390898
v 0.527266 0.004269 -0.390898
v 0.792387 0.907820 0.390898
v 0.527266 0.004269 0.390898
v 0.000000 1.092180 -0.578697
v 0.000000 0.004269 -0.578697
v 0.000000 1.092180 0.452389
v 0.000000 0.004269 0.452389
v 0.527266 0.004269 -0.390898
v 0.527266 0.004269 0.390898
v 0.527266 0.004269 -0.390898
v 0.527266 0.004269 0.390898
v 1.142151 -1.687431 -0.387887
v 1.135409 -1.698208 0.393805
v 0.287816 -1.685858 -0.583059
v 0.277834 -1.701813 0.574182
v 1.142151 -1.687431 -0.387887
v 1.135409 -1.698208 0.393805
v 0.287816 -1.685858 -0.583059
v 0.277834 -1.701813 0.574182
v 1.142151 -1.687431 -0.387887
v 1.135409 -1.698208 0.393805
v 0.287816 -1.685858 -0.583059
v 0.277834 -1.701813 0.574182
v 1.142151 -1.687431 -0.387887
v 1.135409 -1.698208 0.393805
v 0.288880 -2.500951 -0.594288
v 0.278899 -2.516906 0.562953
v 1.143216 -2.502524 -0.399116
v 1.136473 -2.513301 0.382576
v 0.600485 -3.825725 -0.185854
v 0.597816 -3.829992 0.123589
v 0.828932 -3.826146 -0.133666
v 0.827129 -3.829028 0.075357
v 0.824114 1.635174 -0.233567
v 0.695724 1.494302 0.252405
v 0.000000 1.722398 -0.421367
v 0.000000 1.672818 0.401194
v 0.855501 1.008096 -0.390898
v 0.855501 1.008096 0.390898
v 0.000000 1.225352 -0.578697
v 0.000000 1.279019 0.399535
v 1.195800 0.234509 -0.115510
v 1.431145 0.317999 -0.101362
v 1.386317 0.387509 0.234135
v 1.150971 0.304018 0.219986
v 1.480987 -0.605329 0.096597
v 1.716333 -0.521838 0.110746
v 1.671504 -0.452329 0.446242
v 1.436158 -0.535819 0.432094
v 1.480987 -0.605329 0.096597
v 1.716333 -0.521838 0.110746
v 1.671504 -0.452329 0.446242
v 1.436158 -0.535819 0.432094
v 1.657092 -0.929472 0.178462
v 1.729293 -0.845982 0.192611
v 1.715540 -0.776472 0.528107
v 1.643339 -0.859963 0.513959
v 0.600670 -3.967286 -0.187805
v 0.598000 -3.971552 0.121639
v 0.829117 -3.967706 -0.135616
v 0.827314 -3.970588 0.073407
v 0.526224 -3.837239 0.660329
v 0.755537 -3.836275 0.612096
v 0.526408 -3.978799 0.658378
v 0.755722 -3.977835 0.610146
v 0.308773 1.785765 -0.027942
v 0.000000 1.650127 0.117575
v 0.308773 1.785765 -0.255112
v 0.000000 1.831854 -0.346440
v 0.347633 2.181071 -0.027942
v 0.000000 2.227160 0.063386
v 0.347633 2.181071 -0.255112
v 0.000000 2.227160 -0.346440
v 0.347633 2.181071 -0.027942
v 0.000000 2.227160 0.063386
v 0.347633 2.181071 -0.255112
v 0.000000 2.227160 -0.346440
v 0.000000 0.040691 -0.545323
v 0.000000 0.026993 0.448228
v -0.792387 0.907820 -0.390898
v -0.527266 0.004269 -0.390898
v -0.792387 0.907820 0.390898
v -0.527266 0.004269 0.390898
v -0.527266 0.004269 -0.390898
v -0.527266 0.004269 0.390898
v -0.527266 0.004269 -0.390898
v -0.527266 0.004269 0.390898
v -1.142151 -1.687431 -0.387887
v -1.135409 -1.698208 0.393805
v -0.287816 -1.685858 -0.583059
v -0.277834 -1.701813 0.574182
v -1.142151 -1.687431 -0.387887
v -1.135409 -1.698208 0.393805
v -0.287816 -1.685858 -0.583059
v -0.277834 -1.701813 0.574182
v -1.142151 -1.687431 -0.387887
v -1.135409 -1.698208 0.393805
v -0.287816 -1.685858 -0.583059
v -0.277834 -1.701813 0.574182
v -1.142151 -1.687431 -0.387887
v -1.135409 -1.698208 0.393805
v -0.288880 -2.500951 -0.594288
v -0.278899 -2.516906 0.562953
v -1.143216 -2.502524 -0.399116
v -1.136473 -2.513301 0.382576
v -0.600485 -3.825725 -0.185854
v -0.597816 -3.829992 0.123589
v -0.828932 -3.826146 -0.133666
v -0.827129 -3.829028 0.075357
v -0.824114 1.635174 -0.233567
v -0.695724 1.494302 0.252405
v -0.855501 1.008096 -0.390898
v -0.855501 1.008096 0.390898
v -1.195800 0.234509 -0.115510
v -1.431145 0.317999 -0.101362
v -1.386317 0.387509 0.234135
v -1.150971 0.304018 0.219986
v -1.480987 -0.605329 0.096597
v -1.716333 -0.521838 0.110746
v -1.671504 -0.452329 0.446242
v -1.436158 -0.535819 0.432094
v -1.480987 -0.605329 0.096597
v -1.716333 -0.521838 0.110746
v -1.671504 -0.452329 0.446242
v -1.436158 -0.535819 0.432094
v -1.657092 -0.929472 0.178462
v -1.729293 -0.845982 0.192611
v -1.715540 -0.776472 0.528107
v -1.643339 -0.859963 0.513959
v -0.600670 -3.967286 -0.187805
v -0.598000 -3.971552 0.121639
v -0.829117 -3.967706 -0.135616
v -0.827314 -3.970588 0.073407
v -0.526224 -3.837239 0.660329
v -0.755537 -3.836275 0.612096
v -0.526408 -3.978799 0.658378
v -0.755722 -3.977835 0.610146
v -0.308773 1.785765 -0.027942
v -0.308773 1.785765 -0.255112
v -0.347633 2.181071 -0.027942
v -0.347633 2.181071 -0.255112
v -0.347633 2.181071 -0.027942
v -0.347633 2.181071 -0.255112
vn 0.5068 0.0620 -0.8598
vn 0.0911 -0.0121 0.9958
vn 0.2665 0.0715 -0.9612
vn 0.9595 -0.2816 -0.0000
vn 0.2689 -0.0358 -0.9625
vn -0.0000 1.0000 -0.0000
vn 0.2227 0.0137 -0.9748
vn 0.1713 0.0804 0.9819
vn -0.9408 -0.3390 -0.0064
vn 0.1994 -0.2670 0.9428
vn 0.2059 -0.0132 0.9785
vn -1.0000 -0.0012 -0.0086
vn 1.0000 0.0012 0.0086
vn -0.0014 0.9999 0.0133
vn -0.9726 -0.2323 -0.0116
vn 0.9732 -0.2300 0.0052
vn 0.2157 -0.2410 -0.9462
vn 0.1408 0.9278 0.3455
vn 0.2562 0.2672 -0.9290
vn 0.1504 0.1785 0.9724
vn 0.0866 0.1619 0.9830
vn 0.2088 -0.0564 -0.9763
vn 0.8463 -0.5327 -0.0000
vn -0.1297 0.2012 0.9709
vn 0.8554 0.4683 0.2211
vn 0.4261 0.1386 0.8940
vn -0.9182 -0.3959 -0.0122
vn 0.1297 -0.2012 -0.9709
vn -0.9409 -0.3338 -0.0566
vn 0.9409 0.3338 0.0566
vn -0.3127 0.9209 -0.2326
vn 0.7316 -0.6610 0.1669
vn 0.9925 0.1037 0.0652
vn -0.1832 0.1734 0.9677
vn 0.1906 -0.1878 -0.9635
vn -0.8636 -0.5033 0.0289
vn 0.0013 -0.9999 -0.0138
vn 0.9912 -0.0005 0.1322
vn -0.9912 0.0005 -0.1322
vn 0.0014 -0.9999 -0.0133
vn 0.2664 -0.0131 -0.9638
vn 0.2531 0.6489 -0.7175
vn 0.3601 0.9008 0.2428
vn 0.9952 -0.0978 -0.0000
vn 0.3344 0.0391 0.9416
vn 0.1314 0.9913 -0.0000
vn -0.9868 -0.1617 -0.0068
vn -0.5068 0.0620 -0.8598
vn -0.0911 -0.0121 0.9958
vn -0.2665 0.0715 -0.9612
vn -0.9595 -0.2816 -0.0000
vn -0.2689 -0.0358 -0.9625
vn -0.2227 0.0137 -0.9748
vn -0.1713 0.0804 0.9819
vn 0.9408 -0.3390 -0.0064
vn -0.1994 -0.2670 0.9428
vn -0.2059 -0.0132 0.9785
vn 1.0000 -0.0012 -0.0086
vn -1.0000 0.0012 0.0086
vn 0.0014 0.9999 0.0133
vn 0.9726 -0.2323 -0.0116
vn -0.9732 -0.2300 0.0052
vn -0.2157 -0.2410 -0.9462
vn -0.1408 0.9278 0.3455
vn -0.2562 0.2672 -0.9290
vn -0.1504 0.1785 0.9724
vn -0.0866 0.1619 0.9830
vn -0.2088 -0.0564 -0.9763
vn -0.8463 -0.5327 -0.0000
vn 0.1297 0.2012 0.9709
vn -0.8554 0.4683 0.2211
vn -0.4261 0.1386 0.8940
vn 0.9182 -0.3959 -0.0122
vn -0.1297 -0.2012 -0.9709
vn 0.9409 -0.3338 -0.0566
vn -0.9409 0.3338 0.0566
vn 0.3127 0.9209 -0.2326
vn -0.7316 -0.6610 0.1669
vn -0.9925 0.1037 0.0652
vn 0.1832 0.1734 0.9677
vn -0.1906 -0.1878 -0.9635
vn 0.8636 -0.5033 0.0289
vn -0.0013 -0.9999 -0.0138
vn -0.9912 -0.0005 0.1322
vn 0.9912 0.0005 -0.1322
vn -0.0014 -0.9999 -0.0133
vn -0.2664 -0.0131 -0.9638
vn -0.2531 0.6489 -0.7175
vn -0.3601 0.9008 0.2428
vn -0.9952 -0.0978 -0.0000
vn -0.3344 0.0391 0.9416
vn -0.1314 0.9913 -0.0000
vn 0.9868 -0.1617 -0.0068
vt 0.625000 0.500000
vt 0.665566 0.554112
vt 0.375000 0.750000
vt 0.625000 0.750000
vt 0.625000 1.000000
vt 0.375000 1.000000
vt 0.375000 0.250000
vt 0.375000 0.500000
vt 0.625000 0.250000
vt 0.000000 0.000000
vt 0.125000 0.500000
vt 0.125000 0.750000
vt 0.625000 0.992212
vt 0.665566 0.695888
vt 0.625000 0.250000
vt 0.625000 0.257788
vt 0.625000 1.000000
vt 0.870817 0.533717
vt 0.870817 0.716283
s 0
usemtl Material
f 39/1/1 35/2/1 44/1/1 43/1/1
f 4/3/2 3/4/2 7/5/2 8/6/2
f 6/7/3 2/8/3 13/8/3 15/7/3
f 2/8/4 1/1/4 3/4/4 4/3/4
f 6/7/5 5/9/5 1/1/5 2/8/5
f 9/10/6 2/10/6 13/10/6 17/10/6
f 10/10/6 12/10/6 22/10/6 18/10/6
f 4/10/6 10/10/6 18/10/6 14/10/6
f 15/7/7 13/8/7 29/8/7 27/7/7
f 13/8/6 14/3/6 18/3/6 17/8/6
f 17/8/6 18/3/6 22/3/6 21/8/6
f 15/11/6 16/12/6 20/12/6 19/11/6
f 11/10/6 9/10/6 17/10/6 21/10/6
f 4/3/8 8/6/8 16/6/8 14/3/8
f 12/10/9 11/10/9 21/10/9 22/10/9
f 22/3/6 21/8/6 25/8/6 26/3/6
f 19/11/6 20/12/6 24/12/6 23/11/6
f 30/3/10 28/6/10 32/6/10 34/3/10
f 14/3/11 16/6/11 28/6/11 30/3/11
f 16/12/12 15/11/12 27/11/12 28/12/12
f 13/8/13 14/3/13 30/3/13 29/8/13
f 34/3/14 32/6/14 63/6/14 64/3/14
f 28/12/15 27/11/15 31/11/15 32/12/15
f 29/8/16 30/3/16 34/3/16 33/8/16
f 27/7/17 29/8/17 33/8/17 31/7/17
f 38/13/18 36/14/18 67/14/18 68/13/18
f 39/1/19 41/15/19 37/16/19 35/2/19
f 42/17/20 40/4/20 36/14/20 38/13/20
f 7/5/21 3/4/21 40/4/21 42/17/21
f 1/1/22 5/9/22 41/15/22 39/1/22
f 3/4/23 1/1/23 39/1/23 40/4/23
f 45/4/24 46/4/24 50/4/24 49/4/24
f 35/2/25 36/14/25 45/4/25 44/1/25
f 36/14/26 40/4/26 46/4/26 45/4/26
f 40/4/27 39/1/27 43/1/27 46/4/27
f 43/1/28 44/1/28 48/1/28 47/1/28
f 46/4/29 43/1/29 47/1/29 50/4/29
f 44/1/30 45/4/30 49/4/30 48/1/30
f 54/4/31 53/4/31 52/1/31 51/1/31
f 58/4/32 55/1/32 56/1/32 57/4/32
f 52/1/33 53/4/33 57/4/33 56/1/33
f 53/4/34 54/4/34 58/4/34 57/4/34
f 51/1/35 52/1/35 56/1/35 55/1/35
f 54/4/36 51/1/36 55/1/36 58/4/36
f 59/11/37 61/8/37 62/3/37 60/12/37
f 32/12/12 31/11/12 59/11/12 60/12/12
f 33/8/13 34/3/13 62/3/13 61/8/13
f 31/7/7 33/8/7 61/8/7 59/7/7
f 64/3/11 63/6/11 65/6/11 66/3/11
f 62/3/38 34/3/38 64/3/38 66/3/38
f 32/12/39 60/12/39 65/12/39 63/12/39
f 60/12/40 62/3/40 66/3/40 65/12/40
f 69/2/41 70/16/41 74/16/41 73/2/41
f 35/2/42 37/16/42 70/16/42 69/2/42
f 36/14/43 35/2/43 69/2/43 67/14/43
f 67/14/44 69/2/44 73/2/44 71/14/44
f 68/13/45 67/14/45 71/14/45 72/13/45
f 77/2/46 78/18/46 76/19/46 75/14/46
f 23/11/47 24/12/47 80/12/47 79/11/47
f 113/1/48 115/1/48 116/1/48 111/2/48
f 84/3/49 8/6/49 7/5/49 83/4/49
f 6/7/50 91/7/50 89/8/50 82/8/50
f 82/8/51 84/3/51 83/4/51 81/1/51
f 6/7/52 82/8/52 81/1/52 5/9/52
f 85/10/6 93/10/6 89/10/6 82/10/6
f 86/10/6 94/10/6 98/10/6 88/10/6
f 84/10/6 90/10/6 94/10/6 86/10/6
f 91/7/53 103/7/53 105/8/53 89/8/53
f 89/8/6 93/8/6 94/3/6 90/3/6
f 93/8/6 97/8/6 98/3/6 94/3/6
f 91/11/6 95/11/6 96/12/6 92/12/6
f 87/10/6 97/10/6 93/10/6 85/10/6
f 84/3/54 90/3/54 92/6/54 8/6/54
f 88/10/55 98/10/55 97/10/55 87/10/55
f 98/3/6 102/3/6 101/8/6 97/8/6
f 95/11/6 99/11/6 100/12/6 96/12/6
f 106/3/56 110/3/56 108/6/56 104/6/56
f 90/3/57 106/3/57 104/6/57 92/6/57
f 92/12/58 104/12/58 103/11/58 91/11/58
f 89/8/59 105/8/59 106/3/59 90/3/59
f 110/3/60 136/3/60 135/6/60 108/6/60
f 104/12/61 108/12/61 107/11/61 103/11/61
f 105/8/62 109/8/62 110/3/62 106/3/62
f 103/7/63 107/7/63 109/8/63 105/8/63
f 38/13/64 68/13/64 139/14/64 112/14/64
f 113/1/65 111/2/65 37/16/65 41/15/65
f 42/17/66 38/13/66 112/14/66 114/4/66
f 7/5/67 42/17/67 114/4/67 83/4/67
f 81/1/68 113/1/68 41/15/68 5/9/68
f 83/4/69 114/4/69 113/1/69 81/1/69
f 117/4/70 121/4/70 122/4/70 118/4/70
f 111/2/71 116/1/71 117/4/71 112/14/71
f 112/14/72 117/4/72 118/4/72 114/4/72
f 114/4/73 118/4/73 115/1/73 113/1/73
f 115/1/74 119/1/74 120/1/74 116/1/74
f 118/4/75 122/4/75 119/1/75 115/1/75
f 116/1/76 120/1/76 121/4/76 117/4/76
f 126/4/77 123/1/77 124/1/77 125/4/77
f 130/4/78 129/4/78 128/1/78 127/1/78
f 124/1/79 128/1/79 129/4/79 125/4/79
f 125/4/80 129/4/80 130/4/80 126/4/80
f 123/1/81 127/1/81 128/1/81 124/1/81
f 126/4/82 130/4/82 127/1/82 123/1/82
f 131/11/83 132/12/83 134/3/83 133/8/83
f 108/12/58 132/12/58 131/11/58 107/11/58
f 109/8/59 133/8/59 134/3/59 110/3/59
f 107/7/53 131/7/53 133/8/53 109/8/53
f 136/3/57 138/3/57 137/6/57 135/6/57
f 134/3/84 138/3/84 136/3/84 110/3/84
f 108/12/85 135/12/85 137/12/85 132/12/85
f 132/12/86 137/12/86 138/3/86 134/3/86
f 140/2/87 142/2/87 74/16/87 70/16/87
f 111/2/88 140/2/88 70/16/88 37/16/88
f 112/14/89 139/14/89 140/2/89 111/2/89
f 139/14/90 141/14/90 142/2/90 140/2/90
f 68/13/91 72/13/91 141/14/91 139/14/91
f 144/2/92 143/14/92 76/19/92 78/18/92
f 99/11/93 79/11/93 80/12/93 100/12/93
